Coordinates
version=1
nRows=19
nColumns=24
inDegrees=yes

Units are S.I. units (second, meters, Newtons, ...)
Angles are in degrees.

endheader
time	pelvis_tilt	pelvis_list	pelvis_rotation	pelvis_tx	pelvis_ty	pelvis_tz	hip_flexion_r	hip_adduction_r	hip_rotation_r	knee_angle_r	ankle_angle_r	subtalar_angle_r	mtp_angle_r	hip_flexion_l	hip_adduction_l	hip_rotation_l	knee_angle_l	ankle_angle_l	subtalar_angle_l	mtp_angle_l	lumbar_extension	lumbar_bending	lumbar_rotation
      4.27000000	    -12.25683617	      9.73208067	     -2.81960592	     -0.74989739	     -0.03788190	     -0.31005601	     14.20024225	    -14.44086212	     -6.56309308	    -58.90693533	    -27.77960659	    -19.94835997	      6.71934520	     31.29692834	     10.00092304	     -5.63398334	    -23.12267329	     -0.63613865	    -14.34525055	    -12.04598734	      9.10216630	    -11.04985987	      3.20338635
      4.27500000	    -12.22240863	      9.66858334	     -2.69222046	     -0.74250766	     -0.03639709	     -0.31073142	     15.19591065	    -14.28398278	     -6.37718342	    -59.97264021	    -26.83315409	    -20.45068148	      6.94011345	     30.54338075	     10.06552607	     -5.58708819	    -22.75748737	     -0.19699316	    -13.93480020	    -11.72238565	      9.00765368	    -10.99022228	      2.95379127
      4.28000000	    -12.24954009	      9.51840687	     -2.70468346	     -0.73540658	     -0.03497544	     -0.31123678	     16.32989703	    -13.96564065	     -6.01688373	    -60.98364022	    -25.78727833	    -20.61156634	      7.57107758	     29.90231615	      9.95141544	     -5.68295239	    -22.42723100	      0.08713002	    -13.61919835	    -10.87445068	      8.96123418	    -10.80341126	      2.89950739
      4.28500000	    -12.19831556	      9.43242690	     -2.64377118	     -0.72813564	     -0.03346970	     -0.31182432	     17.30783925	    -13.77578559	     -5.78920287	    -61.83641156	    -24.84519151	    -20.63352168	      9.03576906	     29.12772127	      9.95720682	     -5.68889807	    -22.00396894	      0.20276238	    -13.36880665	     -9.63779309	      8.84869254	    -10.70480714	      2.69318665
      4.29000000	    -12.13383159	      9.14067437	     -2.49018519	     -0.72096037	     -0.03187521	     -0.31251951	     18.18124450	    -13.38477944	     -5.77044561	    -62.54143927	    -23.82572146	    -20.52956396	      9.57486863	     28.36344122	      9.81082560	     -5.48838749	    -21.69390794	      0.63401498	    -12.96493439	     -9.35163522	      8.67418956	    -10.40561143	      2.37394800
      4.29500000	    -12.09877918	      8.95935266	     -2.40668142	     -0.71369620	     -0.03034883	     -0.31326204	     19.08738312	    -13.11463058	     -5.60000225	    -63.06907501	    -23.29456101	    -20.42066712	     13.22986302	     27.58313711	      9.76597557	     -5.29797388	    -21.23514677	      0.67863466	    -12.92387821	     -8.32440113	      8.57984756	    -10.18488487	      2.17572025
      4.30000000	    -12.04927763	      8.74953167	     -2.32525131	     -0.70648505	     -0.02884456	     -0.31389579	     19.99240657	    -12.81226252	     -5.52340827	    -63.62593521	    -22.18033002	    -19.87922638	     13.85194951	     26.80564242	      9.67960302	     -5.12317997	    -20.83779268	      1.03250934	    -12.65579405	     -8.19586587	      8.46280375	     -9.94678932	      1.96765248
      4.30500000	    -11.99494426	      8.51526167	     -2.21014057	     -0.69929943	     -0.02732091	     -0.31471512	     20.82551256	    -12.51269492	     -5.45850530	    -63.95961846	    -21.58116835	    -19.48737071	     17.15111340	     26.00682242	      9.61784575	     -4.79644340	    -20.40060801	      1.24523082	    -12.63906353	     -8.24934266	      8.33263365	     -9.66712595	      1.72135614
      4.31000000	    -11.95140534	      8.29672258	     -2.11123588	     -0.69204388	     -0.02585699	     -0.31540306	     21.67721861	    -12.21970481	     -5.43432513	    -64.31054142	    -20.47575896	    -18.70714654	     17.91551129	     25.20504206	      9.54537707	     -4.53585664	    -19.93780523	      1.49239490	    -12.54239167	     -8.25576613	      8.23777079	     -9.41390905	      1.51120200
      4.31500000	    -11.87204101	      8.10376353	     -2.01688388	     -0.68490951	     -0.02441996	     -0.31620746	     22.48210536	    -11.97124911	     -5.39340872	    -64.55936018	    -19.50114630	    -17.90278761	     19.55220184	     24.36093298	      9.52780628	     -4.18028927	    -19.44143870	      1.63321942	    -12.68177317	     -8.48799658	      8.08316854	     -9.16976117	      1.30549180
      4.32000000	    -11.79847828	      7.86202058	     -1.85917667	     -0.67772439	     -0.02300312	     -0.31706033	     23.22225245	    -11.69561133	     -5.44815164	    -64.66762828	    -18.62246797	    -17.15305257	     21.55183469	     23.51942850	      9.47119691	     -3.80342068	    -18.96081592	      1.87024707	    -12.68515874	     -8.80942835	      7.93491260	     -8.88771330	      1.03590130
      4.32500000	    -11.72412756	      7.60414969	     -1.67338059	     -0.67057017	     -0.02162418	     -0.31793087	     23.93012273	    -11.41375792	     -5.55733678	    -64.68321303	    -17.77526194	    -16.46277129	     23.38631351	     22.67646387	      9.39909362	     -3.41251966	    -18.47679597	      2.11577182	    -12.66171744	     -9.15109821	      7.77804633	     -8.59384304	      0.73604541
      4.33000000	    -11.64494850	      7.34213931	     -1.47329501	     -0.66343257	     -0.02028664	     -0.31880422	     24.60704639	    -11.13473343	     -5.70083257	    -64.61697602	    -16.91059419	    -15.79606639	     24.98491163	     21.82490060	      9.31619887	     -3.04200342	    -17.97885674	      2.35638957	    -12.61496056	     -9.45911172	      7.61492469	     -8.29826533	      0.43139721
      4.33500000	    -11.55907870	      7.07856680	     -1.26023857	     -0.65630047	     -0.01898896	     -0.31968696	     25.24846382	    -10.86019616	     -5.87077469	    -64.46590735	    -16.03548128	    -15.16150603	     26.39006006	     20.96420916	      9.22346008	     -2.69718959	    -17.47078805	      2.59118332	    -12.53618315	     -9.70836642	      7.44357665	     -8.00224383	      0.12156062
      4.34000000	    -11.46895725	      6.81163548	     -1.03380948	     -0.64919437	     -0.01774275	     -0.32056733	     25.86088798	    -10.58751577	     -6.06723515	    -64.23577660	    -15.16429558	    -14.58087154	     27.61583926	     20.09841091	      9.11608113	     -2.38079898	    -16.95245796	      2.82290331	    -12.41232390	     -9.88019549	      7.26441537	     -7.70501681	     -0.19333135
      4.34500000	    -11.41565711	      6.53422446	     -0.76662361	     -0.64217664	     -0.01663765	     -0.32144292	     26.49537058	    -10.31461442	     -6.32238949	    -63.95529038	    -14.25927292	    -14.09313211	     28.29189238	     19.30361920	      8.98602419	     -2.08930823	    -16.48311025	      3.10227030	    -12.17125744	     -9.87643074	      7.10891729	     -7.40817921	     -0.54377635
      4.35000000	    -11.35503808	      6.23570095	     -0.52052259	     -0.63512717	     -0.01552384	     -0.32230723	     27.09280628	    -10.00667452	     -6.55830289	    -63.57654331	    -13.39527659	    -13.60646680	     28.80247354	     18.49473832	      8.81737211	     -1.88405144	    -15.98287950	      3.30261046	    -11.98718679	     -9.85917733	      6.95715816	     -7.07665289	     -0.88763210
      4.35500000	    -11.25632565	      5.97119450	     -0.27826130	     -0.62808164	     -0.01446539	     -0.32318316	     27.63100530	     -9.74552536	     -6.79641438	    -63.12460964	    -12.56061487	    -13.17921854	     29.35852117	     17.63767787	      8.67822833	     -1.65354987	    -15.46671137	      3.50150135	    -11.80044738	     -9.82878508	      6.76731151	     -6.77860031	     -1.19434313
      4.36000000	    -11.02619005	      5.73418476	     -0.10017273	     -0.62101250	     -0.01331367	     -0.32402996	     28.00111481	     -9.49443947	     -6.97827984	    -62.52847031	    -11.99873065	    -12.98934972	     30.89893953	     16.60173481	      8.55635036	     -1.40063044	    -14.87495275	      3.62976657	    -11.75037952	     -9.84321202	      6.44875214	     -6.49370957	     -1.40612137
